<?xml version="1.0" encoding="utf-8"?>
<!-- Generator: Adobe Illustrator 25.2.3, SVG Export Plug-In . SVG Version: 6.00 Build 0)  -->
<svg version="1.1" id="Layer_1" xmlns="http://www.w3.org/2000/svg" xmlns:xlink="http://www.w3.org/1999/xlink" x="0px" y="0px"
	 viewBox="0 0 400 400" style="enable-background:new 0 0 400 400;" xml:space="preserve">
<style type="text/css">
	.st0{fill:#FFFFFF;}
	.st1{fill:#E75252;}
</style>
<polygon class="st0" points="485.9,360.2 485.9,360.2 485.9,360.2 "/>
<g>
	<path class="st1" d="M186.4,214.8L186.4,214.8z"/>
	<path class="st1" d="M300.6,224.8c-3.7,7.1-7.2,14-10.9,20.8c-1.6,3-3.5,6-5,9c-0.9,1.9-2.1,2.2-4.2,2c-17.1-2.2-34.3-4.1-51.4-6.2
		c-0.6-0.1-1.2,0-2,0.5c1.7,1,3.4,2,5.1,2.9c8.1,4.7,16.3,9.2,24.4,14c3.1,1.9,6.3,3,9.9,3.3c2.4,0.2,4.8,0.7,7.3,1
		c-1.7,3-3.2,5.9-5,8.6c-4.8,7.2-9.8,14.3-14.6,21.5c-1.5,2.3-2.8,2.7-5.3,1.2c-11.6-6.9-23.4-13.5-35.6-20.4
		c-0.5,0.9-1,1.7-1.4,2.5c-2.7,4.8-5.5,9.5-8.1,14.3c-0.8,1.4-1.7,1.9-3.3,2c-17.3,0.8-34.6,1.7-51.8,2.5c-0.9,0-2.3-0.5-2.8-1.2
		c-6.9-10-13.7-20.1-20.5-30.2c-0.1-0.1-0.1-0.3-0.1-0.8c2.8-0.4,5.5-0.9,8.3-1.2c15.6-1.3,31.1-2.6,46.7-3.9
		c3.5-0.3,5.8-4.1,4.2-7.3c-1.3-2.7-2.7-5.4-3.9-8.1c-0.6-1.4-1.4-1.9-3-1.8c-18.5,0.9-36.8,2.7-55.1,5.6c-7,1.1-7.1,1.2-10.5-5.1
		c-4.4-8.2-8.6-16.4-12.9-24.7c-0.2-0.4-0.3-0.8-0.5-1.4c22.8-4.6,45.7-7.5,68.7-9l31.2-0.8c14.9,0.3,29.9,0.4,44.7,1.9
		c18.4,1.9,36.7,5.1,55,7.7C298.9,224.2,299.5,224.5,300.6,224.8z"/>
	<path class="st1" d="M171,215.6L171,215.6z"/>
	<path class="st1" d="M200.1,365.9l28.3-31.1l0,0c3.8-4.5,7.5-9.1,11.5-13.8c-27.2-2.4-53.8-2.5-80.8-0.2c5.8,6.9,11,13.5,17,20.7
		c-0.1,0.1,0.1-0.1,0,0c8.7,10.3,18.4,21.2,23.4,25C199.8,366.2,200,366,200.1,365.9"/>
</g>
<path class="st1" d="M290.5,158.4l-0.9,2.3c0.2-0.6,0.4-1.2,0.7-1.9C290.4,158.7,290.5,158.5,290.5,158.4z"/>
<path d="M63.7,114"/>
<path d="M108.3,48.6l-0.4,0.1c0,0,0,0,0-0.1H108.3z"/>
<path d="M107.9,48.5C107.9,48.5,107.9,48.5,107.9,48.5l-0.2,0.1C107.7,48.6,107.8,48.5,107.9,48.5z"/>
<g>
	<rect x="196.5" y="75.1" width="0.5" height="0"/>
</g>
<g>
	<rect x="196.5" y="75.1" width="0.5" height="0"/>
</g>
<g>
	<rect x="196.5" y="75.1" width="0.5" height="0"/>
</g>
<path d="M331.4,77.5c27.5,1.6,19.5-22.9,19.5-22.9s-65-20.6-150.9-18.9C114.1,33.9,49.1,54.6,49.1,54.6s-8,24.5,19.5,22.9
	C94.6,76,93.4,91.4,93.3,92.9c0,0,0,0,0,0.1h0v13.3c1.2-0.3,2.4-0.5,3.6-0.7c0,0.1,0,0.1,0,0.2c8.2-1.7,16.5-3.3,24.7-4.6
	c2.6-0.4,5.3-0.8,7.9-1.2c59-6.6,104.8-5.7,139.7-1.6c5.2,0.7,10.3,1.4,15.5,2.2c4.3,0.7,8.7,1.4,13,2.2c3.2,0.6,6.3,1.3,9.2,2V93h0
	c0,0,0,0,0-0.1C306.6,91.4,305.4,76,331.4,77.5z"/>
<path class="st1" d="M336.3,128.7c-2,9.5-5.7,21.4-9.8,32.9h0c-5.5,14.2-10.9,28.2-16.2,41.9c-0.6,1.6-1.3,3.2-1.9,4.8
	c-18.2-3.1-35.7-6-53.5-9c1-2.3,2.1-4.8,3.2-7.3c0.3-0.7,0.6-1.3,0.8-2c3.2-7.5,6.3-14.9,9.6-22.4c0.3-0.6,1.4-1.3,2.1-1.2
	c4.7,0.6,9.3,1.3,14,2.1c0.7,0.1,1.3,0.2,2,0.4l3.1-8.4l0.9-2.3c0.1-0.1,0.1-0.3,0.2-0.4c0.6-1.5,1-3.1,1.6-5.1
	c-2.6-0.5-5.2-1-7.8-1.4c-5.1-0.9-10.1-1.6-15.2-2.4c-29.9-4.1-60-5.4-90.8-3.8c0.4,1.3,0.7,2.5,1.1,3.8c4,13.8,8,27.5,12,41.1
	c0.1,0.2,0.1,0.4,0.2,0.5l1.5,5.1l-6.5,0.8l-0.3,0c-8.7,0.7-17.5,1.6-26.2,2.2c-0.6,0-1.8-1.2-2-2.1c-0.7-2.2-1.3-4.4-2-6.7
	c-3.7-12.6-7.4-25.2-11.1-37.8c-0.3-1-0.5-2-0.8-3.2c-0.1-0.2-0.1-0.5-0.2-0.7c-1.7,0.2-3.5,0.5-5.2,0.7c-5.8,0.8-11.6,1.8-17.4,2.8
	c-15.9,2.9-31.6,6.6-47.1,11c-4.2-11.6-8-23.1-10.7-33.2c0.1,0,0.1,0,0.2-0.1c-0.1-0.3-0.1-0.6-0.2-1c10.5-2.8,20.5-5.1,29.5-7
	c1.2-0.3,2.4-0.5,3.6-0.7c0,0.1,0,0.1,0,0.2c8.2-1.7,16.5-3.3,24.7-4.6c2.6-0.4,5.3-0.8,7.9-1.2c59-6.6,104.8-5.7,139.7-1.6
	c5.2,0.7,10.3,1.4,15.5,2.2c4.3,0.7,8.7,1.4,13,2.2c3.2,0.6,6.3,1.3,9.2,2C318.6,122.8,328.4,125.8,336.3,128.7z"/>
</svg>
